<mxfile host="app.diagrams.net" modified="2022-04-26T19:10:03.560Z" agent="5.0 (Macintosh; Intel Mac OS X 10_15_7) AppleWebKit/537.36 (KHTML, like Gecko) Chrome/99.0.4844.84 Safari/537.36 OPR/85.0.4341.75" etag="w259WgoQCMUkKYUWwR0V" version="17.4.6" type="github">
  <diagram id="ji13-s1qjL8ou1RABo7J" name="Page-1">
    <mxGraphModel dx="666" dy="698" grid="1" gridSize="10" guides="1" tooltips="1" connect="1" arrows="1" fold="1" page="1" pageScale="1" pageWidth="850" pageHeight="1100" math="0" shadow="0">
      <root>
        <mxCell id="0" />
        <mxCell id="1" parent="0" />
      </root>
    </mxGraphModel>
  </diagram>
</mxfile>
